<?xml version="1.0" encoding="UTF-8" standalone="no"?>
<!-- Created with Inkscape (http://www.inkscape.org/) -->

<svg
   width="16"
   height="16"
   viewBox="0 0 4.2333332 4.2333332"
   version="1.1"
   id="svg1"
   inkscape:version="1.3.2 (091e20e, 2023-11-25, custom)"
   sodipodi:docname="doclogo.svg"
   xmlns:inkscape="http://www.inkscape.org/namespaces/inkscape"
   xmlns:sodipodi="http://sodipodi.sourceforge.net/DTD/sodipodi-0.dtd"
   xmlns="http://www.w3.org/2000/svg"
   xmlns:svg="http://www.w3.org/2000/svg">
  <sodipodi:namedview
     id="namedview1"
     pagecolor="#505050"
     bordercolor="#ffffff"
     borderopacity="1"
     inkscape:showpageshadow="0"
     inkscape:pageopacity="0"
     inkscape:pagecheckerboard="1"
     inkscape:deskcolor="#505050"
     inkscape:document-units="mm"
     inkscape:zoom="31.728222"
     inkscape:cx="6.429607"
     inkscape:cy="6.7920604"
     inkscape:window-width="1920"
     inkscape:window-height="1001"
     inkscape:window-x="-9"
     inkscape:window-y="-9"
     inkscape:window-maximized="1"
     inkscape:current-layer="svg1" />
  <defs
     id="defs1">
    <linearGradient
       id="swatch2"
       inkscape:swatch="solid">
      <stop
         style="stop-color:#ffffff;stop-opacity:1;"
         offset="0"
         id="stop2" />
    </linearGradient>
    <rect
       x="0.063035361"
       y="-0.12607072"
       width="15.884911"
       height="16.074017"
       id="rect1" />
  </defs>
  <path
     d="M 0.19774133,2.6719008 H 0.00569402 V 2.4798535 H 0.19774133 Z M 1.429013,2.5108289 q -0.024781,0.026329 -0.058853,0.058853 -0.034072,0.030975 -0.080536,0.057304 -0.046463,0.026329 -0.1084141,0.044914 -0.060402,0.017036 -0.1393892,0.017036 -0.11615765,0 -0.1982424,-0.037171 Q 0.76304248,2.6130476 0.71193311,2.5402555 0.66237252,2.4674634 0.63914099,2.3621471 0.61745823,2.2568308 0.61745823,2.122088 q 0,-0.2973636 0.1084138,-0.4367528 0.10996257,-0.1409379 0.31130247,-0.1409379 0.1084138,0 0.1781084,0.030975 0.069695,0.029427 0.1130601,0.074341 0.044914,0.043365 0.066597,0.094475 0.023232,0.051109 0.035622,0.094475 l -0.1966936,0.051109 q -0.010844,-0.032524 -0.027878,-0.063499 -0.015488,-0.030975 -0.03872,-0.054207 -0.023232,-0.02478 -0.055756,-0.038719 -0.030975,-0.013939 -0.072792,-0.013939 -0.0511094,0 -0.0913774,0.018585 -0.040268,0.017036 -0.0681458,0.0635 -0.0263291,0.044914 -0.0418168,0.1223527 -0.0139389,0.077438 -0.0139389,0.1966937 0,0.1053162 0.0108416,0.1812059 0.0108416,0.074341 0.0356216,0.1223527 0.0263291,0.046463 0.0681459,0.068146 0.0418168,0.021683 0.1022187,0.021683 0.069695,0 0.1068651,-0.020134 0.03872,-0.020134 0.055756,-0.038719 V 2.2552821 H 1.0480159 V 2.0849175 H 1.429013 Z M 2.3489821,2.6719008 H 2.1476422 V 2.0121254 L 2.155386,1.8556998 1.9726314,2.1964289 H 1.941656 l -0.1827547,-0.3407291 0.0062,0.1564256 V 2.6719008 H 1.5730491 V 1.5629825 H 1.7650963 L 1.941656,1.8959677 1.957144,1.9362357 1.972632,1.8959677 2.1491916,1.5629825 h 0.1997911 z m 1.0036027,0 H 3.1450498 L 3.0753552,2.4457806 H 2.7005532 L 2.6308585,2.6719008 H 2.4264211 L 2.788833,1.5629825 H 2.9979168 Z M 3.0226971,2.269221 2.9406124,2.0043815 2.8879542,1.8247244 2.8383936,2.0059303 2.7563089,2.269221 Z M 3.7397775,1.5629825 q 0.072792,0 0.1223528,0.00155 0.05111,0.00155 0.085182,0.00619 0.035622,0.0031 0.060402,0.00929 0.024781,0.00619 0.046463,0.017036 0.026329,0.01239 0.057304,0.035622 0.030975,0.023232 0.055756,0.060402 0.026329,0.03717 0.043366,0.089829 0.017036,0.051109 0.017036,0.1208039 0,0.072792 -0.018585,0.1269991 -0.018585,0.052658 -0.046463,0.089829 -0.026329,0.03717 -0.057304,0.060402 -0.030975,0.021683 -0.057304,0.034073 -0.029427,0.013939 -0.066597,0.021683 -0.035622,0.00774 -0.074341,0.01239 -0.038719,0.0031 -0.078988,0.00465 -0.040268,0 -0.077438,0 H 3.6685341 V 2.6719008 H 3.4671942 V 1.5629825 Z m -0.01239,0.5203862 q 0.075889,0 0.1316453,-0.00619 0.055756,-0.00619 0.091377,-0.02478 0.037171,-0.018585 0.054207,-0.052658 0.017036,-0.034073 0.017036,-0.089829 0,-0.03717 -0.01239,-0.071243 -0.01239,-0.034073 -0.040268,-0.057304 -0.037171,-0.030975 -0.094475,-0.038719 -0.057304,-0.00929 -0.1595232,-0.00929 h -0.046463 v 0.3500217 z"
     id="text1"
     style="font-size:1.41111px;font-family:'Arial Monospaced MT';-inkscape-font-specification:'Arial Monospaced MT, Normal';fill:#ffffff;stroke-width:0.219511;stroke-linecap:square;stroke-linejoin:round;paint-order:fill markers stroke"
     aria-label=".GMAP" />
</svg>
